<svg xmlns="http://www.w3.org/2000/svg" viewBox="0 0 1140 360"><path d="M0 0h1140v360H0V0z" fill="#1D4380"/><text style="line-height:1.25" x="336.475" y="141.172" font-weight="400" font-size="40" letter-spacing="0" word-spacing="0" font-family="sans-serif" fill="#fff"><tspan x="336.475" y="190">Use your materials and</tspan></text><text style="line-height:1.25" x="345.547" y="141.172" font-weight="400" font-size="40" letter-spacing="0" word-spacing="0" font-family="sans-serif" fill="#fff"><tspan x="345.547" y="240">plans to create a pack</tspan></text><g fill="#fff"><path d="M510.974 109.813l.179 16.466h71.077l.18-16.466.118-16.419h-71.673z" stroke-width="1.124"/><path d="M510.855 140.668v9.463h14.667v-9.462h37.38v9.462h14.668v-9.462h37.38v9.462h14.195v-18.927h-118.29z"/><path d="M591.673 109.813l.091 16.466h36.262l.092-16.466.06-16.419h-36.566zm-80.757-37.66l.091 16.466h36.262l.091-16.466.061-16.419h-36.566z" stroke-width=".802"/><path d="M556.624 72.153l.179 16.466h71.077l.18-16.466.118-16.419h-71.673z" stroke-width="1.124"/><text word-spacing="0" letter-spacing="0" font-size="33.689" font-weight="400" style="line-height:1.25" x="455.836" y="57.135" transform="scale(1.11924 .89346)" font-family="sans-serif" stroke-width=".774"><tspan x="455.836" y="57.135">PackIt</tspan></text></g></svg>